<?xml version="1.0" encoding="UTF-8"?>
<svg width="350px" height="178px" viewBox="0 0 350 178" version="1.1" xmlns="http://www.w3.org/2000/svg" xmlns:xlink="http://www.w3.org/1999/xlink">
    <!-- Generator: Sketch 44.1 (41455) - http://www.bohemiancoding.com/sketch -->
    <title>Group 2</title>
    <desc>Created with Sketch.</desc>
    <defs></defs>
    <g id="Page-1" stroke="none" stroke-width="1" fill="none" fill-rule="evenodd">
        <g id="Artboard-4">
            <g id="Group-2">
                <g id="house-2" transform="translate(72.351936, 0.000000)" fill-rule="nonzero">
                    <path d="M185.144021,60.1552197 L100.103588,5.13965022 C98.6366173,4.18858744 96.7371298,4.23528251 95.3167995,5.25818386 L18.7816059,60.2705605 C17.6698178,61.0719596 17.0096811,62.3594664 17.0096811,63.7283901 L17.0096811,170.413848 C17.0096811,172.764964 18.9123576,174.673076 21.2607062,174.673076 L182.833144,174.673076 C185.187472,174.673076 187.087358,172.764964 187.087358,170.413848 L187.087358,63.727991 C187.087358,62.2848341 186.358656,60.937861 185.144021,60.1552197 Z" id="Shape" fill="#AC92EB"></path>
                    <path d="M123.307631,89.5320045 L80.7890091,89.5320045 C78.4410592,89.5320045 76.5383827,91.4369238 76.5383827,93.7876413 L76.5383827,170.413448 C76.5383827,172.764565 78.4410592,174.672677 80.7890091,174.672677 L123.307631,174.672677 C125.655979,174.672677 127.561845,172.764565 127.561845,170.413448 L127.561845,93.7876413 C127.561845,91.4369238 125.655979,89.5320045 123.307631,89.5320045 Z" id="Shape" fill="#A0D468"></path>
                    <rect id="Rectangle-path" fill="#5D9CEC" x="32.4626993" y="95.0723543" width="32.2450456" height="31.7466592"></rect>
                    <rect id="Rectangle-path" fill="#5D9CEC" x="140.716344" y="94.9163049" width="33.4839977" height="31.7530448"></rect>
                    <ellipse id="Oval" fill="#5D9CEC" cx="102.834624" cy="59.8431211" rx="15.4713554" ry="15.4895919"></ellipse>
                    <path d="M93.5452733,132.100345 C93.5452733,134.451462 91.6425968,136.359574 89.2942483,136.359574 C86.9431093,136.359574 85.0400342,134.451462 85.0400342,132.100345 C85.0400342,129.749229 86.9427107,127.841516 89.2942483,127.841516 C91.6425968,127.841516 93.5452733,129.749628 93.5452733,132.100345 Z" id="Shape" fill="#434A54"></path>
                    <path d="M201.811276,51.7022152 L104.015376,0.618609865 C102.782005,-0.0267399103 101.315433,-0.0267399103 100.082062,0.618609865 L2.28536446,51.7022152 C0.880979499,52.4349686 0.0027904328,53.8908969 0.0027904328,55.4749372 L0.0027904328,72.5050673 C0.0027904328,73.9925247 0.777733485,75.3738206 2.04857631,76.1436906 C3.31941913,76.9171525 4.9011959,76.9666413 6.21867882,76.2777892 L102.050114,26.2230717 L197.880752,76.2777892 C198.491059,76.5990673 199.169932,76.7611031 199.842825,76.7611031 C200.608998,76.7611031 201.368793,76.5551659 202.047665,76.1436906 C203.318508,75.3734215 204.097039,73.9921256 204.097039,72.5050673 L204.097039,55.4749372 C204.097039,53.8908969 203.212472,52.4349686 201.811276,51.7022152 Z" id="Shape" fill="#E6E9ED"></path>
                    <path d="M191.341173,174.672677 L12.7590547,174.672677 C10.4079157,174.672677 8.50484055,172.764565 8.50484055,170.413448 C8.50484055,168.062332 10.4075171,166.15422 12.7590547,166.15422 L191.341173,166.15422 C193.689522,166.15422 195.58861,168.062332 195.58861,170.413448 C195.58861,172.764565 193.689522,174.672677 191.341173,174.672677 Z" id="Shape" fill="#434A54"></path>
                    <path d="M17.0096811,161.901377 L63.779328,161.901377 C66.130467,161.901377 68.0331435,159.993265 68.0331435,157.642148 C68.0331435,155.29143 66.1308656,153.383318 63.779328,153.383318 L17.0096811,153.383318 L17.0096811,161.901377 Z" id="Shape" fill="#967ADC"></path>
                    <path d="M187.087358,153.383318 L140.317711,153.383318 C137.969362,153.383318 136.063497,155.29143 136.063497,157.642148 C136.063497,159.993265 137.969362,161.901377 140.317711,161.901377 L187.087358,161.901377 L187.087358,153.383318 Z" id="Shape" fill="#967ADC"></path>
                    <path d="M46.7724374,132.362157 C44.4240888,132.362157 42.5214123,130.454045 42.5214123,128.103327 L42.5214123,93.7876413 C42.5214123,91.4369238 44.4240888,89.5320045 46.7724374,89.5320045 C49.1207859,89.5320045 51.0234624,91.4369238 51.0234624,93.7876413 L51.0234624,128.103327 C51.0234624,130.454045 49.1207859,132.362157 46.7724374,132.362157 Z" id="Shape" fill="#CCD1D9"></path>
                    <path d="M63.779328,115.20152 L29.7655467,115.20152 C27.4171982,115.20152 25.5117312,113.299395 25.5117312,110.948677 C25.5117312,108.59796 27.4171982,106.689448 29.7655467,106.689448 L63.779328,106.689448 C66.130467,106.689448 68.0331435,108.597561 68.0331435,110.948677 C68.0331435,113.299794 66.1308656,115.20152 63.779328,115.20152 Z" id="Shape" fill="#CCD1D9"></path>
                    <path d="M157.321412,132.362157 C154.979442,132.362157 153.073576,130.454045 153.073576,128.103327 L153.073576,93.7876413 C153.073576,91.4369238 154.979442,89.5320045 157.321412,89.5320045 C159.67574,89.5320045 161.575228,91.4369238 161.575228,93.7876413 L161.575228,128.103327 C161.575228,130.454045 159.676139,132.362157 157.321412,132.362157 Z" id="Shape" fill="#CCD1D9"></path>
                    <path d="M174.331093,115.20152 L140.317711,115.20152 C137.963383,115.20152 136.063497,113.299395 136.063497,110.948677 C136.063497,108.59796 137.963383,106.689448 140.317711,106.689448 L174.331093,106.689448 C176.679442,106.689448 178.585308,108.597561 178.585308,110.948677 C178.585308,113.299794 176.679442,115.20152 174.331093,115.20152 Z" id="Shape" fill="#CCD1D9"></path>
                    <path d="M102.050114,81.0167399 C99.6989749,81.0167399 97.7958998,79.1118206 97.7958998,76.7611031 L97.7958998,42.7040359 C97.7958998,40.3529193 99.6985763,38.448 102.050114,38.448 C104.398462,38.448 106.301139,40.3529193 106.301139,42.7040359 L106.301139,76.7611031 C106.301139,79.1118206 104.398462,81.0167399 102.050114,81.0167399 Z" id="Shape" fill="#CCD1D9"></path>
                    <path d="M119.053417,63.9898027 L85.0400342,63.9898027 C82.6916856,63.9898027 80.7890091,62.0848834 80.7890091,59.7337668 C80.7890091,57.3798565 82.6916856,55.4745381 85.0400342,55.4745381 L119.053417,55.4745381 C121.407745,55.4745381 123.307631,57.3794574 123.307631,59.7337668 C123.307631,62.0852825 121.408144,63.9898027 119.053417,63.9898027 Z" id="Shape" fill="#CCD1D9"></path>
                    <path d="M174.331093,132.362157 L140.317711,132.362157 C137.963383,132.362157 136.063497,130.454045 136.063497,128.103327 L136.063497,93.7876413 C136.063497,91.4369238 137.963383,89.5320045 140.317711,89.5320045 L174.331093,89.5320045 C176.679442,89.5320045 178.585308,91.4369238 178.585308,93.7876413 L178.585308,128.103327 C178.585308,130.454045 176.679442,132.362157 174.331093,132.362157 Z M144.565148,123.850484 L170.076879,123.850484 L170.076879,98.04687 L144.565148,98.04687 L144.565148,123.850484 Z" id="Shape" fill="#E6E9ED"></path>
                    <path d="M63.779328,132.362157 L29.7655467,132.362157 C27.4171982,132.362157 25.5117312,130.454045 25.5117312,128.103327 L25.5117312,93.7876413 C25.5117312,91.4369238 27.4171982,89.5320045 29.7655467,89.5320045 L63.779328,89.5320045 C66.130467,89.5320045 68.0331435,91.4369238 68.0331435,93.7876413 L68.0331435,128.103327 C68.0331435,130.454045 66.1308656,132.362157 63.779328,132.362157 Z M34.0165718,123.850484 L59.528303,123.850484 L59.528303,98.04687 L34.0165718,98.04687 L34.0165718,123.850484 Z" id="Shape" fill="#E6E9ED"></path>
                    <path d="M102.050114,81.0167399 C90.3251139,81.0167399 80.7890091,71.4697937 80.7890091,59.7341659 C80.7890091,47.9953453 90.3251139,38.4483991 102.050114,38.4483991 C113.771925,38.4483991 123.307631,47.9953453 123.307631,59.7341659 C123.307631,71.4697937 113.771925,81.0167399 102.050114,81.0167399 Z M102.050114,46.9632646 C95.0150342,46.9632646 89.2942483,52.6907937 89.2942483,59.7341659 C89.2942483,66.7743453 95.0150342,72.5050673 102.050114,72.5050673 C109.082005,72.5050673 114.805581,66.7743453 114.805581,59.7341659 C114.805581,52.6907937 109.082005,46.9632646 102.050114,46.9632646 Z" id="Shape" fill="#E6E9ED"></path>
                </g>
                <g id="sale-sign" transform="translate(287.813212, 112.547085)" fill-rule="nonzero">
                    <path d="M22.0792387,18.1146481 C21.3633954,18.1146481 20.7830016,17.5329226 20.7830016,16.8143133 L20.7830016,11.6166244 C20.7830016,10.8980151 21.363274,10.3162896 22.0792387,10.3162896 C22.7949606,10.3162896 23.3753544,10.8980151 23.3753544,11.6166244 L23.3753544,16.8143133 C23.3753544,17.5329226 22.7949606,18.1146481 22.0792387,18.1146481 Z" id="Shape" fill="#434A54"></path>
                    <path d="M50.5976687,18.1146481 C49.882675,18.1146481 49.3024026,17.5329226 49.3024026,16.8143133 L49.3024026,11.6166244 C49.3024026,10.8980151 49.882675,10.3162896 50.5976687,10.3162896 C51.3126624,10.3162896 51.8929349,10.8980151 51.8929349,11.6166244 L51.8929349,16.8143133 C51.8929349,17.5329226 51.3125411,18.1146481 50.5976687,18.1146481 Z" id="Shape" fill="#434A54"></path>
                    <path d="M11.7089777,62.2963428 L6.52439343,62.2963428 C5.80855013,62.2963428 5.22815633,61.7146173 5.22815633,60.9980765 L5.22815633,1.30118652 C5.22815633,0.584524038 5.80842876,0.00085172112 6.52439343,0.00085172112 L11.7089777,0.00085172112 C12.424821,0.00085172112 13.0061858,0.584524038 13.0061858,1.30118652 L13.0061858,60.9980765 C13.0060644,61.7146173 12.424821,62.2963428 11.7089777,62.2963428 Z" id="Shape" fill="#F6BB42"></path>
                    <path d="M58.3746059,5.11872226 L1.33968775,5.11872226 C0.622873485,5.11872226 0.0424796804,5.70044778 0.0424796804,6.41905706 L0.0424796804,11.6166244 C0.0424796804,12.3332868 0.622752115,12.9150124 1.33968775,12.9150124 L58.3746059,12.9150124 C59.0914201,12.9150124 59.6718139,12.3332868 59.6718139,11.6166244 L59.6718139,6.41905706 C59.6716926,5.70044778 59.0914201,5.11872226 58.3746059,5.11872226 Z" id="Shape" fill="#FFCE54"></path>
                    <path d="M10.0335791,8.09767772 C10.5398156,8.60518183 10.5398156,9.42843113 10.0335791,9.93605692 C9.52722135,10.4436827 8.70602845,10.4436827 8.20064162,9.93605692 C7.69428383,9.42843113 7.69428383,8.60518183 8.20064162,8.09767772 C8.70602845,7.59005193 9.52722135,7.59005193 10.0335791,8.09767772 Z" id="Shape" fill="#434A54"></path>
                    <rect id="Rectangle-path" fill="#E76B77" x="15.5984173" y="15.5139785" width="41.4791019" height="36.387108"></rect>
                    <g id="Group" transform="translate(21.239840, 29.810239)" fill="#FFFFFF">
                        <path d="M4.07355861,2.97348011 C3.76636984,2.89171488 2.51661764,2.7168687 2.51661764,2.26436144 C2.51661764,1.97733142 2.78302592,1.81185417 3.25430763,1.81185417 C3.82802606,1.81185417 4.17599533,2.06846558 4.18643319,2.51148224 L6.28674996,2.51148224 C6.26587423,1.00198906 5.19065284,0.138830543 3.32640172,0.138830543 C1.56458732,0.138830543 0.375641745,1.05333568 0.375641745,2.42971701 C0.375641745,3.68259878 1.13420747,4.09325003 2.17896486,4.45255467 C2.68058921,4.62557573 3.94077927,4.93548054 4.23753018,5.18065455 C4.32952903,5.26241978 4.38074739,5.35562241 4.38074739,5.47912197 C4.38074739,5.84791721 4.03277812,6.08554741 3.46949756,6.08554741 C2.81433951,6.08554741 2.37340043,5.84791721 2.33261994,5.14062366 L0.0893286994,5.14062366 C0.110204428,6.77179128 1.35898566,7.76781829 3.39752484,7.76781829 C5.34418654,7.76781829 6.5833795,6.80415668 6.5833795,5.28322611 C6.5833795,3.764364 5.29296818,3.29092874 4.07355861,2.97348011 Z" id="Shape"></path>
                        <path d="M11.33103,0.0969745333 C9.06771258,0.0969745333 7.58177336,1.61790511 7.58177336,3.93921018 C7.58177336,6.24907786 9.07802908,7.77937737 11.3101542,7.77937737 C13.5023485,7.77937737 14.9776071,6.23970893 14.9776071,3.94882246 C14.9776071,1.64832372 13.5137573,0.0969745333 11.33103,0.0969745333 Z M11.3102756,5.96204784 C10.3885879,5.96204784 9.85662093,5.21107316 9.85662093,3.90684478 C9.85662093,2.65396301 10.3990258,1.89544452 11.3006873,1.89544452 C12.191911,1.89544452 12.7134401,2.6235444 12.7134401,3.84600756 C12.7134401,5.23200117 12.2222537,5.96204784 11.3102756,5.96204784 Z" id="Shape"></path>
                        <polygon id="Shape" points="18.6794078 0.292870391 16.4379371 0.292870391 16.4379371 7.60440951 21.9164808 7.60440951 21.9164808 5.69399904 18.6794078 5.69399904"></polygon>
                        <path d="M26.4315854,0.292870391 L23.1736366,0.292870391 L23.1736366,7.60440951 L26.3898339,7.60440951 C28.7754928,7.60440951 30.106806,6.3612617 30.106806,3.92777278 C30.1069273,1.64832372 28.6637105,0.292870391 26.4315854,0.292870391 Z M26.2457671,5.75666138 L25.3658309,5.75666138 L25.3658309,2.13112792 L26.0314268,2.13112792 C27.1787423,2.13112792 27.8842691,2.72623763 27.8842691,3.96950712 C27.8842691,5.06847071 27.3418642,5.75666138 26.2457671,5.75666138 Z" id="Shape"></path>
                    </g>
                    <path d="M44.1406359,24.6107251 L28.5382134,24.6107251 C27.8223701,24.6107251 27.2411267,24.0289996 27.2411267,23.3122154 C27.2411267,22.5936062 27.8222487,22.0118806 28.5382134,22.0118806 L44.1406359,22.0118806 C44.8555083,22.0118806 45.4357807,22.5936062 45.4357807,23.3122154 C45.4356593,24.0289996 44.8553869,24.6107251 44.1406359,24.6107251 Z" id="Shape" fill="#DA4453"></path>
                    <path d="M44.1406359,45.4033061 L28.5382134,45.4033061 C27.8223701,45.4033061 27.2411267,44.8215806 27.2411267,44.1047965 C27.2411267,43.3861872 27.8222487,42.80434 28.5382134,42.80434 L44.1406359,42.80434 C44.8555083,42.80434 45.4357807,43.3860655 45.4357807,44.1047965 C45.4356593,44.8215806 44.8553869,45.4033061 44.1406359,45.4033061 Z" id="Shape" fill="#DA4453"></path>
                </g>
                <rect id="Rectangle" fill="#9ED468" x="0" y="174.807175" width="350" height="3.19282511" rx="1.59641256"></rect>
                <g id="fir-tree" transform="translate(1.195900, 94.587444)" fill-rule="nonzero">
                    <rect id="Rectangle-path" fill="#965353" x="21.7380487" y="66.8938549" width="16.7173677" height="13.3136551"></rect>
                    <polygon id="Shape" fill="#8AC054" points="60.1839031 70.1830205 0.00971876186 70.1830205 30.097438 16.7192334"></polygon>
                    <polygon id="Shape" fill="#9ED36A" points="51.8243571 43.4530854 8.36659993 43.4530854 30.097438 0.0122209746"></polygon>
                    <polygon id="Shape" fill="#000000" opacity="0.1" points="51.0851042 54.0157678 13.937018 45.4353902 15.0535784 43.4530854 45.1400435 43.4530854"></polygon>
                    <rect id="Rectangle-path" fill="#FFFFFF" opacity="0.2" x="21.7380487" y="70.1830205" width="3.34466487" height="10.0243328"></rect>
                </g>
            </g>
        </g>
    </g>
</svg>