<svg id="Capa_1" data-name="Capa 1" xmlns="http://www.w3.org/2000/svg" xmlns:xlink="http://www.w3.org/1999/xlink" viewBox="0 0 807 784.21"><defs><style>.cls-1{fill:#ededed;}.cls-2{fill:#fcd9c1;}.cls-3{fill:#fabf97;}.cls-4{fill:#e26668;}.cls-10,.cls-5,.cls-6,.cls-7,.cls-8,.cls-9{fill:none;stroke:#ededed;stroke-width:7.11px;}.cls-5{stroke-dasharray:31.9 31.9;}.cls-6{stroke-dasharray:28.98 28.98;}.cls-7{stroke-dasharray:26.68 26.68;}.cls-8{stroke-dasharray:29.98 29.98;}.cls-9{stroke-dasharray:24.14 24.14;}.cls-11{fill:#ddab89;}.cls-12{clip-path:url(#clip-path);}.cls-13{fill:#fff;}.cls-14{fill:#254553;}.cls-15{fill:#b2ce5b;}.cls-16{fill:#e8ba9c;}.cls-17{fill:#efcfb9;}.cls-18{fill:#6dcaf3;}.cls-19{fill:#416170;}.cls-20{fill:#f4c8b3;}.cls-21{clip-path:url(#clip-path-2);}.cls-22{fill:#fc9493;}.cls-23{fill:#284354;}.cls-24{fill:#eaa182;}.cls-25{clip-path:url(#clip-path-3);}.cls-26{clip-path:url(#clip-path-4);}.cls-27{fill:#688da7;}.cls-28{fill:#419b19;}.cls-29{fill:#3a7f1c;}.cls-30{fill:#8bcb0a;}.cls-31{fill:#bcbec0;}.cls-32{fill:#48befe;}.cls-33{fill:#447ad4;}.cls-34{font-size:22.63px;fill:#f9f9f9;font-family:MyriadPro-Regular, Myriad Pro;}.cls-35{letter-spacing:0em;}.cls-36{letter-spacing:0em;}.cls-37{letter-spacing:-0.05em;}.cls-38{letter-spacing:-0.08em;}.cls-39{letter-spacing:-0.02em;}.cls-40{letter-spacing:-0.04em;}.cls-41{letter-spacing:-0.01em;}.cls-42{letter-spacing:-0.01em;}</style><clipPath id="clip-path" transform="translate(-132.38 -36.84)"><polygon class="cls-1" points="347.95 331.7 347.95 676.4 570.86 676.4 570.86 331.7 347.95 331.7 347.95 331.7"/></clipPath><clipPath id="clip-path-2" transform="translate(-132.38 -36.84)"><polygon class="cls-2" points="659.6 264.02 663.66 322.85 688 322.85 692.06 264.02 659.6 264.02 659.6 264.02"/></clipPath><clipPath id="clip-path-3" transform="translate(-132.38 -36.84)"><polygon class="cls-3" points="247.7 366.52 242.45 432.89 210.93 432.89 205.67 366.52 247.7 366.52 247.7 366.52"/></clipPath><clipPath id="clip-path-4" transform="translate(-132.38 -36.84)"><path class="cls-4" d="M207.51,370h38.36c18.55,0,3.53,18.5-17.18,19.92-.49.05-1.83.08-2,.08s-1.5,0-2-.08C204,388.55,189,370,207.51,370Z"/></clipPath></defs><title>presentation</title><line class="cls-5" x1="249.94" y1="488.63" x2="138.29" y2="488.63"/><line class="cls-6" x1="95.31" y1="434.08" x2="95.31" y2="216.74"/><line class="cls-7" x1="146.41" y1="176.69" x2="506.56" y2="176.69"/><line class="cls-8" x1="544.32" y1="232.74" x2="544.32" y2="337.67"/><line class="cls-9" x1="497.04" y1="378.73" x2="412.56" y2="378.73"/><path class="cls-10" d="M430.17,525.47H414.22m-159.5,0H238.77s-11.08,0-11.08-11.08V499.91m0-260.81V224.61s0-11.08,11.08-11.08h13.34m400.18,0h13.34s11.08,0,11.08,11.08v15m0,149.9v15s0,11.08-11.08,11.08H653.55m-120.68,0H520.8" transform="translate(-132.38 -36.84)"/><path class="cls-11" d="M600.64,488.75s7.62,27.21-35.87,37.85L441.09,556.88s-13.44,3.29-17.17-10L420,533s-7.62-27.21,35.87-37.86l109.87-26.9s27.24-6.67,34.81,20.34l.06.2Z" transform="translate(-132.38 -36.84)"/><path class="cls-11" d="M593.71,575.8s2.67,27-40.2,29.8l-121.92,8s-13.25.87-14.55-12.34l-1.36-13.77s-2.67-27,40.2-29.8l108.49-7.12s26.68-1.75,29.31,24.86l0,.37Z" transform="translate(-132.38 -36.84)"/><path class="cls-11" d="M588.77,642.1s2.81,28.4-42.32,31.36l-128.29,8.42s-14,.92-15.37-13l-1.43-14.44S398.56,626,443.68,623l114.11-7.49s28.17-1.85,30.95,26.25l0,.3Z" transform="translate(-132.38 -36.84)"/><path class="cls-11" d="M539,730s-2.39,25.45-42.57,20.34L382.19,735.8s-12.43-1.58-11.26-14.05l1.22-13s2.39-25.45,42.57-20.34l101.66,12.92s25,3.18,22.69,28.32l0,.32Z" transform="translate(-132.38 -36.84)"/><polygon class="cls-1" points="215.56 294.86 215.56 639.56 438.48 639.56 438.48 294.86 215.56 294.86 215.56 294.86"/><g class="cls-12"><polygon class="cls-13" points="229.34 294.84 229.34 639.56 424.71 639.56 424.71 294.84 229.34 294.84 229.34 294.84"/></g><path class="cls-14" d="M570.78,332v-9.61s0-34.15-42.61-34.15H390.49s-42.61-3.2-42.61,34.15V332ZM347.88,676.71v29s0,25.69,42.61,25.69H528.17s42.61,1.95,42.61-35.36V676.71Z" transform="translate(-132.38 -36.84)"/><polygon class="cls-1" points="309.06 271.41 309.06 277.64 358.77 277.64 358.77 271.41 309.06 271.41 309.06 271.41"/><polygon class="cls-1" points="295.34 271.41 295.34 277.64 303.64 277.64 303.64 271.41 295.34 271.41 295.34 271.41"/><path class="cls-15" d="M377.49,637.19V609.9s0-15.76,14.18-15.76H541.25l-15.79,14.56c0,.39,0,.79,0,1.19v27.29s0,15.76-14.18,15.76H391.67s-14.18,0-14.18-15.76Z" transform="translate(-132.38 -36.84)"/><polygon class="cls-13" points="258.76 572.74 258.76 576.24 380.35 576.24 380.35 572.74 258.76 572.74 258.76 572.74"/><polygon class="cls-13" points="258.76 595.62 258.76 599.92 358.14 599.92 358.14 595.62 258.76 595.62 258.76 595.62"/><polygon class="cls-13" points="258.76 584.03 258.76 587.53 380.35 587.53 380.35 584.03 258.76 584.03 258.76 584.03"/><path class="cls-16" d="M424.87,732.35s86.37-68.51,43.34-103.26c-26.4-21.32-42.78,21-67.8,32C360.09,679,347.88,692,347.88,692V549.35c-6.29,1.77-34.25,15.17-45,30.72s-66.35,169-69.71,179.36c-1.6,4.93-23.11,54.51-28.82,61.62H379.2c13.86-11.82,36.05-39.56,45.67-88.7Z" transform="translate(-132.38 -36.84)"/><path class="cls-17" d="M433.79,665.71s-18.69-11-10.08-22.57c0,0,19.1-28.16,35.43-13.63,2,1.81,16.05,11.24,5.2,26.74l-3.63,5.19s-10.86,15.5-26.36,4.65l-.55-.38Z" transform="translate(-132.38 -36.84)"/><path class="cls-15" d="M377.49,439.64V379.09s0-15.76,14.18-15.76H541.25L525.46,377.9c0,.39,0,.79,0,1.19v60.55s0,15.76-14.18,15.76H391.67s-14.18,0-14.18-15.76Z" transform="translate(-132.38 -36.84)"/><polygon class="cls-13" points="258.76 341.93 258.76 345.43 380.35 345.43 380.35 341.93 258.76 341.93 258.76 341.93"/><polygon class="cls-13" points="258.76 375.79 258.76 379.29 380.35 379.29 380.35 375.79 258.76 375.79 258.76 375.79"/><polygon class="cls-13" points="258.76 364.5 258.76 368 380.35 368 380.35 364.5 258.76 364.5 258.76 364.5"/><polygon class="cls-13" points="258.76 387.07 258.76 390.58 380.35 390.58 380.35 387.07 258.76 387.07 258.76 387.07"/><polygon class="cls-13" points="258.76 398.36 258.76 401.86 358.14 401.86 358.14 398.36 258.76 398.36 258.76 398.36"/><polygon class="cls-13" points="258.76 353.22 258.76 356.72 380.35 356.72 380.35 353.22 258.76 353.22 258.76 353.22"/><path class="cls-18" d="M541.25,555.26V494.72s0-15.76-14.18-15.76H377.49l15.79,14.56c0,.39,0,.79,0,1.19v60.55s0,15.76,14.18,15.76H527.07s14.18,0,14.18-15.76Z" transform="translate(-132.38 -36.84)"/><polygon class="cls-13" points="395.22 457.55 395.22 461.06 273.63 461.06 273.63 457.55 395.22 457.55 395.22 457.55"/><polygon class="cls-13" points="395.22 491.41 395.22 494.92 273.63 494.92 273.63 491.41 395.22 491.41 395.22 491.41"/><polygon class="cls-13" points="395.22 480.13 395.22 483.63 273.63 483.63 273.63 480.13 395.22 480.13 395.22 480.13"/><polygon class="cls-13" points="395.22 502.7 395.22 506.2 273.63 506.2 273.63 502.7 395.22 502.7 395.22 502.7"/><polygon class="cls-13" points="395.22 513.99 395.22 517.49 295.84 517.49 295.84 513.99 395.22 513.99 395.22 513.99"/><polygon class="cls-13" points="395.22 468.84 395.22 472.34 273.63 472.34 273.63 468.84 395.22 468.84 395.22 468.84"/><path class="cls-1" d="M675.69,350.33a94.3,94.3,0,1,0-94.3-94.3,94.3,94.3,0,0,0,94.3,94.3Z" transform="translate(-132.38 -36.84)"/><path class="cls-19" d="M643.54,197.22s-21.75,0-21.75,21.75v45.23s0,21.75,21.75,21.75h64.31s21.75,0,21.75-21.75V219s0-21.75-21.75-21.75Z" transform="translate(-132.38 -36.84)"/><path class="cls-2" d="M744.37,355.79c-4-17.33-9.44-30.13-16.81-32.51-21.89-7.07-46.5-8.7-41.28-24.22,3.3-9.81-23.54-9.81-20.24,0,5.23,15.53-16.68,17.15-38.57,24.22-9.5,3.07-16,15.62-20.46,32.41a205,205,0,0,0,137.36.1Z" transform="translate(-132.38 -36.84)"/><path class="cls-20" d="M642.43,246.18c4.11-1.66,5.24-8.46,2.52-15.19s-8.26-10.84-12.37-9.18-5.24,8.46-2.52,15.19,8.26,10.84,12.37,9.18Z" transform="translate(-132.38 -36.84)"/><path class="cls-20" d="M709,246.18c-4.11-1.66-5.24-8.46-2.52-15.19s8.26-10.84,12.37-9.18,5.24,8.46,2.52,15.2-8.26,10.84-12.37,9.18Z" transform="translate(-132.38 -36.84)"/><polygon class="cls-2" points="527.22 227.18 531.27 286.01 555.62 286.01 559.68 227.18 527.22 227.18 527.22 227.18"/><g class="cls-21"><path class="cls-20" d="M692.19,298.36c19.42,0,40.57-26.84,40.57-60s11.9-60-40.57-60-40.57,26.84-40.57,60,21.15,60,40.57,60Z" transform="translate(-132.38 -36.84)"/></g><path class="cls-2" d="M675.83,292.09c19.42,0,40.57-26.84,40.57-60s11.9-60-40.57-60-40.57,26.84-40.57,60,21.15,60,40.57,60Z" transform="translate(-132.38 -36.84)"/><path class="cls-22" d="M744.37,355.79c-4-17.33-9.44-30.13-16.81-32.51-8.37-2.7-17.13-4.61-24.48-6.8-5.59,7.09-15.76,11.84-27.39,11.84-11.25,0-21.14-4.45-26.83-11.16-6.41,1.92-13.9,3.7-21.4,6.12-9.5,3.07-16,15.62-20.46,32.41a205,205,0,0,0,137.36.1Z" transform="translate(-132.38 -36.84)"/><path class="cls-19" d="M729.61,213.92c0-53.84-32.67-69.45-53.5-69.45s-54.33,15.62-54.33,69.45c0,25,4.89,18.49,4.89,18.49l40.79-14.28,8.23-34,8.23,34,40.79,14.28s4.89,6.53,4.89-18.49Z" transform="translate(-132.38 -36.84)"/><path class="cls-22" d="M692.17,267.64c-.54-.76-2.82,2.62-11-.76-2.26-.94-4.82,1.47-5.49,2.16-.67-.69-3.22-3.1-5.49-2.16-8.16,3.38-10.44,0-11,.76-.2.27,6.43,9.42,16.47,9.42s16.67-9.15,16.47-9.42Z" transform="translate(-132.38 -36.84)"/><path class="cls-23" d="M695.58,231.46c-3.41,1.71-8.39,3.37-8.75-.6-.42-4.58,3.84-7.61,8.13-8.05,3.34-.34,8.11,3.15,8,7.13-.18,4.45-3,1.22-7.32,1.52Z" transform="translate(-132.38 -36.84)"/><path class="cls-23" d="M655.81,231.46c4.3.3,8.39,3.37,8.75-.6.42-4.58-3.84-7.61-8.12-8.05-3.34-.34-8.11,3.15-8,7.13.18,4.45,3,1.22,7.32,1.52Z" transform="translate(-132.38 -36.84)"/><path class="cls-1" d="M226.69,462.56a94.3,94.3,0,1,0-94.3-94.3,94.3,94.3,0,0,0,94.3,94.3Z" transform="translate(-132.38 -36.84)"/><path class="cls-24" d="M263.81,356.36c-4.26-1.72-5.42-8.77-2.61-15.74s8.55-11.23,12.81-9.51,5.42,8.77,2.61,15.74-8.55,11.23-12.81,9.51Z" transform="translate(-132.38 -36.84)"/><path class="cls-24" d="M189.56,356.36c4.26-1.72,5.42-8.77,2.61-15.74s-8.55-11.23-12.81-9.51-5.42,8.77-2.61,15.74,8.55,11.23,12.81,9.51Z" transform="translate(-132.38 -36.84)"/><polygon class="cls-3" points="115.32 329.68 110.06 396.05 78.54 396.05 73.29 329.68 115.32 329.68 115.32 329.68"/><g class="cls-25"><path class="cls-24" d="M226.69,410.57c-25.15,0-52.54-37.56-52.54-80.43s-15.41-77.63,52.54-77.63,52.53,34.76,52.53,77.63-27.39,80.43-52.53,80.43Z" transform="translate(-132.38 -36.84)"/></g><path class="cls-3" d="M226.69,403.91c-8.07,0-30.16-10.48-38.41-21.64-5.62-7.61-3.06-12.54-3.06-26.45,0-34.3-12.89-76.11,41.47-76.11s41.47,41.81,41.47,76.11c0,14.14,2.44,18.91-3.35,26.55-8.25,10.89-30.05,21.54-38.12,21.54Z" transform="translate(-132.38 -36.84)"/><path class="cls-23" d="M206.91,338.91c4.31.3,8.4,3.38,8.77-.6.43-4.59-3.84-7.62-8.14-8.07-3.35-.35-8.13,3.15-8,7.15.18,4.46,3,1.22,7.34,1.52Z" transform="translate(-132.38 -36.84)"/><path class="cls-23" d="M246.46,338.91c-4.31.3-8.4,3.38-8.77-.6-.43-4.59,3.84-7.62,8.14-8.07,3.35-.35,8.13,3.15,8,7.15-.18,4.46-3,1.22-7.34,1.52Z" transform="translate(-132.38 -36.84)"/><path class="cls-4" d="M207.51,370h38.36c18.55,0,3.53,18.5-17.18,19.92-.49.05-1.83.08-2,.08s-1.5,0-2-.08C204,388.55,189,370,207.51,370Z" transform="translate(-132.38 -36.84)"/><g class="cls-26"><path class="cls-13" d="M243.31,363.87s4.46,0,4.46,4.46v2.23s0,4.46-4.46,4.46H210.06s-4.46,0-4.46-4.46v-2.23s0-4.46,4.46-4.46Z" transform="translate(-132.38 -36.84)"/><path class="cls-22" d="M207.51,396.24h38.36c18.55,0,3.53-18.5-17.18-19.92-.49-.05-1.83-.08-2-.08s-1.5,0-2,.08C204,377.73,189,396.24,207.51,396.24Z" transform="translate(-132.38 -36.84)"/><path class="cls-13" d="M238.81,385.43a3.18,3.18,0,0,1,3.25,3.25v1.62a3.18,3.18,0,0,1-3.25,3.25H214.56a3.18,3.18,0,0,1-3.25-3.25v-1.62a3.18,3.18,0,0,1,3.25-3.25Z" transform="translate(-132.38 -36.84)"/></g><path class="cls-19" d="M276.66,279.4c-.3-2.42-2.77-2.05-5.2-1.9-7.59.47-9.45-2.08-24.95-11.21s-31.25-5.47-41.78,2.36c-48.45,11.18-20.07,77-20.07,77s-.18-34.62,14.81-45.14c25.09,17.11,50.73,18,65.33,7.86,5.63,13.14,3.79,37.28,3.79,37.28s9.69-24.42,4.4-46c3.24-5.49,4.67-12.29,3.68-20.17Z" transform="translate(-132.38 -36.84)"/><path class="cls-27" d="M295,463.5c-7.84-21.06-15.57-39.12-15.57-39.12a.88.88,0,0,0-.55-.41c-10.49-7.57-35.08-9.59-35.08-9.59h0S242.7,427,226.66,427s-17.15-12.63-17.15-12.63-24.65,2-35.12,9.62a.88.88,0,0,0-.44.38s-7.73,18.06-15.57,39.12a193,193,0,0,0,29.09,8.21h.07q2.06.41,4.14.78l1.17.2q1.74.3,3.48.56l.91.14q2,.3,4.05.56l1.62.19,2.68.3,1.78.19q1.87.18,3.75.33h0q7.7.59,15.58.61t15.51-.6h0q1.89-.15,3.77-.33l1.78-.18,2.69-.3L252,474q2-.26,4.06-.56l.89-.14q1.77-.27,3.52-.57l1.12-.19a193.37,193.37,0,0,0,33.29-9l.08,0Z" transform="translate(-132.38 -36.84)"/><polygon class="cls-28" points="806.89 279.13 705.18 350.66 658.47 324.13 658.47 297.2 806.89 265.71 806.89 279.13"/><polygon class="cls-29" points="806.89 292.68 705.18 350.66 705.74 316.32 806.89 265.71 806.89 292.68"/><path class="cls-30" d="M939.11,302.46c-33.44,20.26-67.47,39.51-101.45,58.85l-47-26.88q50.51-29.8,101.45-58.85Z" transform="translate(-132.38 -36.84)"/><path class="cls-28" d="M798.61,334l37.74,21.72c30.78-17.59,61.58-35.13,92-53.3L890.29,280.8Q844.32,307.17,798.61,334Zm31.93,12.83-13.83-8c3.88-2.26,2.78-7.18-1-9.37Q829,321.71,842.27,314c-1.71,4.3.63,9.23,6.88,12.85a36,36,0,0,0,20.94,4.1L844,345.89C840.26,343.7,834.43,344.58,830.55,346.82Zm82.3-47.65c-3.87,2.28-5.25,5.59-1.4,7.76q-12.47,7.35-25,14.58c1.29-4.06-1.29-8.67-7.24-12-6.33-3.58-14.94-4.9-22.4-3.89l25.79-14.89c3.85,2.17,12.3,2.84,16.21.56Z" transform="translate(-132.38 -36.84)"/><path class="cls-13" d="M850.85,318a6.62,6.62,0,0,1,1.15-2.08,9.51,9.51,0,0,1,2.34-2L852,312.5l1.27-.74,2.34,1.34a15.14,15.14,0,0,1,2.69-1,12.92,12.92,0,0,1,2.78-.46,10.71,10.71,0,0,1,2.7.19,8.13,8.13,0,0,1,2.44.91,3.6,3.6,0,0,1,1.33,1.14,1.7,1.7,0,0,1,.22,1.24,3.42,3.42,0,0,1-.74,1.43,17.78,17.78,0,0,1-1.59,1.71l-.23.22-.23.22,4.8,2.75a10.11,10.11,0,0,0,1.39-1.18,8.86,8.86,0,0,0,1-1.18,5.54,5.54,0,0,0,.58-1.06,2.13,2.13,0,0,0,.18-.8l3.49.54A6.57,6.57,0,0,1,875,320.3a12.79,12.79,0,0,1-2.72,2.33l2.48,1.42-1.29.74L871,323.4a16,16,0,0,1-2.67,1.18,12.82,12.82,0,0,1-2.79.61,10.07,10.07,0,0,1-2.74-.08,7.71,7.71,0,0,1-2.56-.93,3.74,3.74,0,0,1-1.48-1.32,1.83,1.83,0,0,1-.16-1.41,4.34,4.34,0,0,1,.91-1.56,19.4,19.4,0,0,1,1.73-1.77l.37-.32L856.85,315a7.82,7.82,0,0,0-1.17.93,6.6,6.6,0,0,0-.82,1,4.66,4.66,0,0,0-.48.87,1.69,1.69,0,0,0-.15.66Zm9.78-4.34a7.11,7.11,0,0,0-2.87.9l4.56,2.61a5.14,5.14,0,0,0,1.34-1.76q.24-.7-.74-1.25A4.08,4.08,0,0,0,860.62,313.63Zm5.28,9.41a8.5,8.5,0,0,0,3-1.08l-4.59-2.63a6.84,6.84,0,0,0-1.48,1.93q-.34.8.68,1.38A3.7,3.7,0,0,0,865.91,323Z" transform="translate(-132.38 -36.84)"/><path class="cls-13" d="M840.47,332.64c2,1.19,1.94,3.16-.21,4.4a8.34,8.34,0,0,1-7.57.09c-2-1.18-2-3.14.19-4.39A8.37,8.37,0,0,1,840.47,332.64Z" transform="translate(-132.38 -36.84)"/><path class="cls-13" d="M889.25,304.43a8.54,8.54,0,0,0,7.67-.15c2.15-1.25,2.19-3.21.12-4.38a8.51,8.51,0,0,0-7.65.14C887.24,301.29,887.17,303.26,889.25,304.43Z" transform="translate(-132.38 -36.84)"/><polygon class="cls-28" points="658.36 260.14 760.07 331.67 806.78 305.14 806.78 278.21 658.36 246.72 658.36 260.14"/><polygon class="cls-29" points="658.36 273.69 760.07 331.67 759.51 297.33 658.36 246.72 658.36 273.69"/><path class="cls-30" d="M790.9,283.47c33.44,20.26,67.47,39.51,101.45,58.85l47-26.88q-50.51-29.8-101.45-58.85Z" transform="translate(-132.38 -36.84)"/><path class="cls-28" d="M839.72,261.81l-38.09,21.61c30.44,18.16,61.24,35.71,92,53.3L931.4,315Q885.71,288.16,839.72,261.81ZM886,326.91,859.93,312a36,36,0,0,0,20.94-4.1c6.25-3.62,8.58-8.55,6.88-12.85q13.28,7.71,26.54,15.45c-3.77,2.19-4.87,7.11-1,9.37l-13.83,8C895.59,325.6,889.76,324.71,886,326.91ZM831.2,272.25c3.92,2.28,12.37,1.61,16.21-.56l25.79,14.89c-7.46-1-16.07.31-22.4,3.89-6,3.37-8.53,8-7.24,12q-12.53-7.24-25-14.58c3.85-2.17,2.47-5.48-1.4-7.76Z" transform="translate(-132.38 -36.84)"/><path class="cls-13" d="M875.79,299.47a1.69,1.69,0,0,0-.15-.66,4.66,4.66,0,0,0-.48-.87,6.6,6.6,0,0,0-.82-1,7.81,7.81,0,0,0-1.17-.93l-4.79,2.75.37.32a19.36,19.36,0,0,1,1.73,1.77,4.33,4.33,0,0,1,.91,1.56,1.83,1.83,0,0,1-.16,1.41,3.74,3.74,0,0,1-1.48,1.32,7.71,7.71,0,0,1-2.56.93,10.07,10.07,0,0,1-2.74.08,12.83,12.83,0,0,1-2.79-.61,16,16,0,0,1-2.67-1.18l-2.43,1.39-1.29-.74,2.48-1.42a12.8,12.8,0,0,1-2.72-2.33,6.57,6.57,0,0,1-1.41-2.56l3.49-.54a2.13,2.13,0,0,0,.18.8,5.53,5.53,0,0,0,.58,1.06,8.86,8.86,0,0,0,1,1.18,10.11,10.11,0,0,0,1.39,1.18l4.8-2.75-.23-.22-.23-.22a17.82,17.82,0,0,1-1.59-1.71,3.42,3.42,0,0,1-.74-1.43,1.7,1.7,0,0,1,.22-1.24,3.6,3.6,0,0,1,1.33-1.14,8.13,8.13,0,0,1,2.44-.91,10.7,10.7,0,0,1,2.7-.19,12.9,12.9,0,0,1,2.78.46,15.13,15.13,0,0,1,2.69,1l2.34-1.34,1.27.74-2.34,1.34a9.51,9.51,0,0,1,2.34,2,6.62,6.62,0,0,1,1.15,2.08Zm-8.7-4.34q-1,.56-.74,1.25a5.14,5.14,0,0,0,1.34,1.76l4.56-2.61a7.11,7.11,0,0,0-2.87-.9A4.08,4.08,0,0,0,867.09,295.13Zm-.58,8.51q1-.58.68-1.38a6.84,6.84,0,0,0-1.48-1.93L861.12,303a8.5,8.5,0,0,0,3,1.08A3.71,3.71,0,0,0,866.51,303.64Z" transform="translate(-132.38 -36.84)"/><path class="cls-13" d="M889.54,313.65c-2,1.19-1.94,3.16.21,4.4a8.34,8.34,0,0,0,7.57.09c2-1.18,2-3.14-.19-4.39A8.37,8.37,0,0,0,889.54,313.65Z" transform="translate(-132.38 -36.84)"/><path class="cls-13" d="M840.77,285.44a8.54,8.54,0,0,1-7.67-.15c-2.15-1.25-2.19-3.21-.12-4.38a8.51,8.51,0,0,1,7.65.14C842.78,282.3,842.85,284.27,840.77,285.44Z" transform="translate(-132.38 -36.84)"/><path class="cls-31" d="M839.85,53.09a4.34,4.34,0,0,0-4.19-3.52c-20.55-.35-117-6.81-160.47-2.83-2.41.22-5.24.75-6.27,2.94a7.14,7.14,0,0,0-.22,4c4.19,30.15,7.15,39.73,12.74,69.66.37,2,.8,4.1,2.14,5.63,1.8,2.06,4.75,2.56,7.46,2.93,12.5,1.7,134.69,26,147,26.13a1.3,1.3,0,0,0,1.6-1.49c3.4-37.25,4.81-66.33.27-103.47Z" transform="translate(-132.38 -36.84)"/><path class="cls-31" d="M839.64,155.43c-1.5,16.64-40.34,17.9-62.73,21.28,5.61-8.75,12.6-21.56,16.13-31.34" transform="translate(-132.38 -36.84)"/><path class="cls-32" d="M834.52,45.77a4.34,4.34,0,0,0-4.19-3.52c-20.55-.35-117-6.81-160.47-2.83-2.41.22-5.24.75-6.27,2.94a7.14,7.14,0,0,0-.22,4c4.19,30.15,7.15,39.73,12.74,69.66.37,2,.8,4.1,2.14,5.63,1.8,2.06,4.75,2.56,7.46,2.93,12.5,1.7,134.69,26,147,26.13a1.3,1.3,0,0,0,1.6-1.49c3.4-37.25,4.81-66.33.27-103.47Z" transform="translate(-132.38 -36.84)"/><path class="cls-33" d="M835.73,45.44c-1.64-6-10.08-4.56-14.95-4.76-7-.3-14.08-.64-21.13-1-19.34-.91-38.68-1.76-58-2.3s-38.59-.9-57.86-.12c-3.88.16-7.75.37-11.62.68s-9.53.61-10.15,5.62c-.35,2.81.56,6,1,8.72q.73,5,1.53,9.9,1.3,8,2.83,15.9c2.11,10.92,4.44,21.8,6.53,32.72,1,5.34,1.17,11.88,7.1,14a37.71,37.71,0,0,0,6.79,1.32c10.39,1.72,20.73,3.76,31.08,5.71,30.74,5.79,61.46,11.78,92.3,17,5,.85,10,1.69,15.05,2.38,1.6.22,3.2.44,4.81.58,2.23.2,4.16,0,4.51-2.64.94-7.22,1.29-14.6,1.8-21.87.48-6.88.87-13.77,1.1-20.66a391.35,391.35,0,0,0-.69-41c-.48-6.69-.73-13.71-2-20.31-.3-1.58-2.71-.91-2.41.66,1.27,6.68,1.49,13.79,2,20.56q.68,9.88.83,19.78c.2,13-.3,26.08-1.18,39.09-.47,6.92-1,13.84-1.66,20.75-.07.8,0,2.86-.82,3.19-.16.06-.42,0-.6,0a9.38,9.38,0,0,1-1.89-.17c-4-.43-7.9-1.08-11.83-1.72-28.76-4.67-57.38-10.29-86-15.69-12.1-2.28-24.2-4.59-36.31-6.79-3.1-.56-6.21-1.15-9.33-1.61-2-.29-4.13-.48-5.9-1.5-3.07-1.77-3.21-6-3.8-9.09Q675.1,104,673.3,95.2c-2-9.72-4-19.43-5.66-29.2q-1.54-9-2.8-18c-.25-1.79-1-4.26.36-5.77.92-1,2.69-1.3,4-1.47,1.92-.25,3.88-.34,5.82-.48,17.25-1.17,34.59-1,51.87-.69,33,.6,66,2.65,98.95,3.81,2.69.09,6.6-.54,7.49,2.73A1.25,1.25,0,0,0,835.73,45.44Z" transform="translate(-132.38 -36.84)"/><text x="-132.38" y="-36.84"></text><text x="-132.38" y="-36.84"></text><path class="cls-32" d="M834.31,148.11c-1.5,16.64-40.34,17.9-62.73,21.28,5.61-8.75,12.6-21.56,16.13-31.34" transform="translate(-132.38 -36.84)"/><path class="cls-33" d="M833.06,148.11c-.49,4.55-4.22,7.54-8,9.54-5,2.64-10.63,4-16.12,5.19-12.44,2.6-25.14,3.47-37.68,5.34l1.41,1.84c6.35-10,12.19-20.52,16.26-31.64.55-1.51-1.86-2.16-2.41-.66-4,10.9-9.77,21.27-16,31-.65,1,.42,2,1.41,1.84,10.57-1.58,21.23-2.45,31.76-4.23,8.82-1.49,18.94-3.26,26.23-8.83a13.57,13.57,0,0,0,5.65-9.42c.17-1.6-2.33-1.58-2.5,0Z" transform="translate(-132.38 -36.84)"/><text x="-132.38" y="-36.84"></text><text class="cls-34" transform="translate(554.41 42.15)"><tspan class="cls-35">A</tspan><tspan class="cls-36" x="13.78" y="0">ll done!</tspan><tspan class="cls-37" x="83.53" y="0"> </tspan><tspan class="cls-38" x="87.29" y="0">Y</tspan><tspan x="97.81" y="0">o</tspan><tspan class="cls-39" x="110.23" y="0">u</tspan><tspan class="cls-40" x="122.2" y="0">’</tspan><tspan class="cls-41" x="126" y="0">r</tspan><tspan x="133.17" y="0">e</tspan><tspan x="0" y="27.15" xml:space="preserve"> insu</tspan><tspan class="cls-42" x="44.07" y="27.15">r</tspan><tspan x="51.25" y="27.15">ed</tspan></text><image width="519" height="800" transform="translate(493.02 384.36) scale(0.27 0.27)" xlink:href="../../../../../Creative Cloud Files/form.png"/><rect class="cls-30" x="298.43" y="190.21" width="76.28" height="37.19" transform="translate(540.76 380.76) rotate(180)"/><path class="cls-28" d="M302.19,193.85v29.9H371v-29.9ZM361.43,220H342.14a14.37,14.37,0,0,0-.59-22.42h19.89c0,3,2.79,6.78,5.78,6.78v11C364.23,215.33,361.43,217,361.43,220Zm-55.51-15.65c3,0,5.68-3.79,5.68-6.78h19.18a14.37,14.37,0,0,0-.59,22.42H311.6c0-3-2.69-4.68-5.68-4.68Z" transform="translate(-132.38 -36.84)"/><path class="cls-13" d="M340.14,205.34a2.53,2.53,0,0,0-.48-.39,5.51,5.51,0,0,0-.73-.4,6,6,0,0,0-.91-.33,5.26,5.26,0,0,0-1-.17v3.74l.34.07a16,16,0,0,1,1.76.52,5,5,0,0,1,1.33.71,2.88,2.88,0,0,1,.84,1,3.32,3.32,0,0,1,.3,1.47,3.59,3.59,0,0,1-.34,1.64,3.19,3.19,0,0,1-.95,1.13,4.25,4.25,0,0,1-1.41.68,6.86,6.86,0,0,1-1.73.24v1.9h-.94v-1.93a9.11,9.11,0,0,1-2.48-.52,7.8,7.8,0,0,1-2.15-1.18l.92-1.74a3.2,3.2,0,0,0,.58.47,6.54,6.54,0,0,0,.89.49,8.18,8.18,0,0,0,1.11.42,7.11,7.11,0,0,0,1.26.25V209.7l-.23-.06-.23-.06a15.28,15.28,0,0,1-1.67-.53,4.18,4.18,0,0,1-1.18-.68,2.66,2.66,0,0,1-.71-.93,3.09,3.09,0,0,1-.24-1.29,3.81,3.81,0,0,1,.31-1.57,3.45,3.45,0,0,1,.87-1.18,4.13,4.13,0,0,1,1.31-.78,6.09,6.09,0,0,1,1.65-.35v-1.83h.94v1.83a7,7,0,0,1,2.17.47,7.85,7.85,0,0,1,1.75,1Zm-6,.47a1.31,1.31,0,0,0,.53,1.14,5.15,5.15,0,0,0,1.62.67v-3.56a2.62,2.62,0,0,0-1.63.52A1.57,1.57,0,0,0,334.17,205.81Zm5.23,6a1.34,1.34,0,0,0-.63-1.2,6.78,6.78,0,0,0-1.77-.73v3.58a3.3,3.3,0,0,0,1.78-.43A1.36,1.36,0,0,0,339.4,211.81Z" transform="translate(-132.38 -36.84)"/><circle class="cls-13" cx="225.12" cy="171.96" r="2.92"/><circle class="cls-13" cx="183.26" cy="171.96" r="2.92"/><rect class="cls-30" x="309.84" y="199.67" width="76.28" height="37.19" transform="translate(563.58 399.68) rotate(180)"/><path class="cls-28" d="M313.6,203.31v29.9h68.77v-29.9Zm59.25,26.16H353.55A14.37,14.37,0,0,0,353,207h19.89c0,3,2.79,6.78,5.78,6.78v11C375.64,224.79,372.85,226.48,372.85,229.47Zm-55.51-15.65c3,0,5.68-3.79,5.68-6.78H342.2a14.37,14.37,0,0,0-.59,22.42H323c0-3-2.69-4.68-5.68-4.68Z" transform="translate(-132.38 -36.84)"/><path class="cls-13" d="M351.55,214.8a2.53,2.53,0,0,0-.48-.39,5.52,5.52,0,0,0-.73-.4,6,6,0,0,0-.91-.33,5.26,5.26,0,0,0-1-.17v3.74l.34.07a16,16,0,0,1,1.76.52,5,5,0,0,1,1.33.71,2.88,2.88,0,0,1,.84,1,3.32,3.32,0,0,1,.3,1.47,3.59,3.59,0,0,1-.34,1.64,3.19,3.19,0,0,1-.95,1.13,4.25,4.25,0,0,1-1.41.68,6.86,6.86,0,0,1-1.73.24v1.9h-.94v-1.93a9.11,9.11,0,0,1-2.48-.52A7.8,7.8,0,0,1,343,223l.92-1.74a3.21,3.21,0,0,0,.58.47,6.55,6.55,0,0,0,.89.49,8.18,8.18,0,0,0,1.11.42,7.11,7.11,0,0,0,1.26.25v-3.74l-.23-.06-.23-.06a15.29,15.29,0,0,1-1.67-.53,4.18,4.18,0,0,1-1.18-.68,2.66,2.66,0,0,1-.71-.93,3.09,3.09,0,0,1-.24-1.29,3.81,3.81,0,0,1,.31-1.57,3.45,3.45,0,0,1,.87-1.18,4.13,4.13,0,0,1,1.31-.78,6.09,6.09,0,0,1,1.65-.35v-1.83h.94v1.83a7,7,0,0,1,2.17.47,7.86,7.86,0,0,1,1.75,1Zm-6,.47a1.31,1.31,0,0,0,.53,1.14,5.15,5.15,0,0,0,1.62.67v-3.56a2.62,2.62,0,0,0-1.63.52A1.57,1.57,0,0,0,345.59,215.27Zm5.23,6a1.34,1.34,0,0,0-.63-1.2,6.78,6.78,0,0,0-1.77-.73v3.58a3.3,3.3,0,0,0,1.78-.43A1.36,1.36,0,0,0,350.81,221.27Z" transform="translate(-132.38 -36.84)"/><circle class="cls-13" cx="236.53" cy="181.42" r="2.92"/><circle class="cls-13" cx="194.67" cy="181.42" r="2.92"/></svg>